<?xml version="1.0" encoding="UTF-8"?>
<svg width="30px" height="30px" viewBox="0 0 30 30" version="1.1" xmlns="http://www.w3.org/2000/svg" xmlns:xlink="http://www.w3.org/1999/xlink">
    <!-- Generator: Sketch 41 (35326) - http://www.bohemiancoding.com/sketch -->
    <title>Combined Shape</title>
    <desc>Created with Sketch.</desc>
    <defs></defs>
    <g id="Desktop" stroke="none" stroke-width="1" fill="none" fill-rule="evenodd" opacity="0.5">
        <g id="Place" transform="translate(-994.000000, -326.000000)" fill="#000000">
            <g id="Top" transform="translate(-1.000000, 74.000000)">
                <g id="Group-15" transform="translate(170.000000, 230.000000)">
                    <g id="Group-13" transform="translate(750.000000, 0.000000)">
                        <g id="Group-11">
                            <g id="Group-9" transform="translate(21.000000, 10.000000)">
                                <g id="Couisine">
                                    <g id="Table-Row/Light/Option/Simple/iPhone-6" transform="translate(0.000000, 2.000000)">
                                        <g id="Group-3">
                                            <path d="M77.4375,12.8125 L77.4375,10.9375 C77.4375,10.4190625 77.0184375,10 76.5,10 C75.9815625,10 75.5625,10.4190625 75.5625,10.9375 L75.5625,12.8125 L69.9375,12.8125 L69.9375,10.9375 C69.9375,10.4190625 69.5175,10 69,10 C68.4825,10 68.0625,10.4190625 68.0625,10.9375 L68.0625,12.8125 L62.4375,12.8125 L62.4375,10.9375 C62.4375,10.4190625 62.0175,10 61.5,10 C60.9825,10 60.5625,10.4190625 60.5625,10.9375 L60.5625,12.8125 L56.5003125,12.8125 C55.119375,12.8125 54,13.9309375 54,15.311875 L54,37.4996875 C54,38.880625 55.119375,40 56.5003125,40 L81.500625,40 C82.8815625,40 84,38.880625 84,37.4996875 L84,15.311875 C84,13.9309375 82.8815625,12.8125 81.500625,12.8125 L77.4375,12.8125 Z M82.125,37.4996875 C82.125,37.8446875 81.8446875,38.125 81.500625,38.125 L56.5003125,38.125 C56.1553125,38.125 55.875,37.8446875 55.875,37.4996875 L55.875,15.311875 C55.875,14.9678125 56.1553125,14.6875 56.5003125,14.6875 L60.5625,14.6875 L60.5625,16.5625 C60.5625,17.0809375 60.9825,17.5 61.5,17.5 C62.0175,17.5 62.4375,17.0809375 62.4375,16.5625 L62.4375,14.6875 L68.0625,14.6875 L68.0625,16.5625 C68.0625,17.0809375 68.4825,17.5 69,17.5 C69.5175,17.5 69.9375,17.0809375 69.9375,16.5625 L69.9375,14.6875 L75.5625,14.6875 L75.5625,16.5625 C75.5625,17.0809375 75.9815625,17.5 76.5,17.5 C77.0184375,17.5 77.4375,17.0809375 77.4375,16.5625 L77.4375,14.6875 L81.500625,14.6875 C81.8446875,14.6875 82.125,14.9678125 82.125,15.311875 L82.125,37.4996875 L82.125,37.4996875 Z M60.5625,21.25 L64.3125,21.25 L64.3125,24.0625 L60.5625,24.0625 L60.5625,21.25 Z M60.5625,25.9375 L64.3125,25.9375 L64.3125,28.75 L60.5625,28.75 L60.5625,25.9375 Z M60.5625,30.625 L64.3125,30.625 L64.3125,33.4375 L60.5625,33.4375 L60.5625,30.625 Z M67.125,30.625 L70.875,30.625 L70.875,33.4375 L67.125,33.4375 L67.125,30.625 Z M67.125,25.9375 L70.875,25.9375 L70.875,28.75 L67.125,28.75 L67.125,25.9375 Z M67.125,21.25 L70.875,21.25 L70.875,24.0625 L67.125,24.0625 L67.125,21.25 Z M73.6875,30.625 L77.4375,30.625 L77.4375,33.4375 L73.6875,33.4375 L73.6875,30.625 Z M73.6875,25.9375 L77.4375,25.9375 L77.4375,28.75 L73.6875,28.75 L73.6875,25.9375 Z M73.6875,21.25 L77.4375,21.25 L77.4375,24.0625 L73.6875,24.0625 L73.6875,21.25 Z" id="Combined-Shape"></path>
                                        </g>
                                    </g>
                                </g>
                            </g>
                        </g>
                    </g>
                </g>
            </g>
        </g>
    </g>
</svg>