<?xml version="1.0" encoding="UTF-8"?>
<svg width="12px" height="12px" viewBox="0 0 12 12" version="1.1" xmlns="http://www.w3.org/2000/svg" xmlns:xlink="http://www.w3.org/1999/xlink">
    <!-- Generator: Sketch 41 (35326) - http://www.bohemiancoding.com/sketch -->
    <title>clock</title>
    <desc>Created with Sketch.</desc>
    <defs></defs>
    <g id="Symbols" stroke="none" stroke-width="1" fill="none" fill-rule="evenodd">
        <g id="afisha" transform="translate(0.000000, -293.000000)" fill="#7F7F7F">
            <g id="clock" transform="translate(0.000000, 291.000000)">
                <path d="M5.89771429,2 C7.52571429,2 8.99971429,2.662 10.0697143,3.72771429 C11.1354286,4.798 11.7974286,6.272 11.7974286,7.9 C11.7974286,9.528 11.1354286,11.002 10.0697143,12.0722857 C8.99942857,13.138 7.52571429,13.8 5.89771429,13.8 C4.26971429,13.8 2.796,13.138 1.73028571,12.0722857 C0.66,11.002 0.00228571429,9.52828571 0.00228571429,7.9 C0.00228571429,6.272 0.659714286,4.798 1.73,3.72771429 C2.796,2.662 4.26971429,2 5.89771429,2 L5.89771429,2 Z M8.90457143,7.578 C9.08142857,7.578 9.222,7.72314286 9.222,7.9 C9.222,8.07685714 9.08142857,8.222 8.90457143,8.222 L5.90685714,8.222 L5.89771429,8.222 C5.77971429,8.222 5.67542857,8.154 5.62114286,8.05885714 L5.61657143,8.05428571 L5.61657143,8.05428571 L5.612,8.04514286 L5.612,8.04514286 L5.612,8.04057143 L5.612,8.04057143 L5.60742857,8.03142857 L5.60742857,8.03142857 L5.60285714,8.02228571 L5.60285714,8.02228571 L5.60285714,8.01771429 L5.60285714,8.01771429 L5.59828571,8.00857143 L5.59828571,8.00857143 L5.59371429,8.004 L5.59371429,8.004 L5.59371429,7.99485714 L5.59371429,7.99485714 L5.58914286,7.98571429 L5.58914286,7.98571429 L5.58914286,7.98114286 L5.58914286,7.98114286 L5.58457143,7.972 L5.58457143,7.972 L5.58457143,7.96285714 L5.58457143,7.96285714 L5.58457143,7.95828571 L5.58457143,7.95371429 L5.58,7.94914286 L5.58,7.94914286 L5.58,7.94 L5.58,7.94 L5.58,7.93085714 L5.58,7.93085714 L5.58,7.92285714 L5.58,7.92285714 L5.58,7.91828571 L5.58,7.91828571 L5.58,7.90914286 L5.58,7.90914286 L5.58,7.9 L5.58,7.9 L5.58,4.05885714 C5.58,3.882 5.72057143,3.74142857 5.89742857,3.74142857 C6.07428571,3.74142857 6.21942857,3.882 6.21942857,4.05885714 L6.21942857,7.578 L8.90457143,7.578 Z M5.89771429,2.644 C4.44657143,2.644 3.13142857,3.22885714 2.17914286,4.18142857 C1.23142857,5.13371429 0.641714286,6.44885714 0.641714286,7.9 C0.641714286,9.35114286 1.23114286,10.6662857 2.17914286,11.6188571 C3.13142857,12.5711429 4.44657143,13.1562857 5.89771429,13.1562857 C7.34885714,13.1562857 8.664,12.5711429 9.61628571,11.6188571 C10.5685714,10.6665714 11.1582857,9.35142857 11.1582857,7.9 C11.1582857,6.44885714 10.5688571,5.13371429 9.61628571,4.18142857 C8.664,3.22914286 7.34885714,2.644 5.89771429,2.644 Z"></path>
            </g>
        </g>
    </g>
</svg>