<svg width="11px" height="7px" viewBox="115 8 11 7" version="1.1" xmlns="http://www.w3.org/2000/svg" xmlns:xlink="http://www.w3.org/1999/xlink">
    <path d="M125.120022,13.4464508 C125.120022,13.5266917 125.089161,13.5976729 125.027437,13.6593967 L124.564511,14.1223225 C124.502787,14.1840463 124.431806,14.2149077 124.351565,14.2149077 C124.271324,14.2149077 124.200343,14.1840463 124.138619,14.1223225 L120.500022,10.4837254 L116.861425,14.1223225 C116.799701,14.1840463 116.72872,14.2149077 116.648479,14.2149077 C116.568238,14.2149077 116.497257,14.1840463 116.435533,14.1223225 L115.972607,13.6593967 C115.910884,13.5976729 115.880022,13.5266917 115.880022,13.4464508 C115.880022,13.3662099 115.910884,13.2952286 115.972607,13.2335049 L120.287076,8.91903606 C120.3488,8.85731231 120.419781,8.82645089 120.500022,8.82645089 C120.580263,8.82645089 120.651244,8.85731231 120.712968,8.91903606 L125.027437,13.2335049 C125.089161,13.2952286 125.120022,13.3662099 125.120022,13.4464508 Z" id="1" stroke="none" fill-opacity="0.6" fill="#000000" fill-rule="evenodd" opacity="0.349999994" transform="translate(120.500022, 11.520679) scale(1, -1) translate(-120.500022, -11.520679) "></path>
</svg>
