<?xml version="1.0" encoding="UTF-8"?>
<svg width="18px" height="25px" viewBox="0 0 18 25" version="1.1" xmlns="http://www.w3.org/2000/svg" xmlns:xlink="http://www.w3.org/1999/xlink">
    <!-- Generator: Sketch 41 (35326) - http://www.bohemiancoding.com/sketch -->
    <title>Shape</title>
    <desc>Created with Sketch.</desc>
    <defs></defs>
    <g id="Desktop" stroke="none" stroke-width="1" fill="none" fill-rule="evenodd">
        <g id="Place" transform="translate(-169.000000, -571.000000)" fill="#FF9400">
            <g id="Top" transform="translate(-1.000000, 74.000000)">
                <g id="Group-15" transform="translate(170.000000, 230.000000)">
                    <g id="Left" transform="translate(0.000000, 31.000000)">
                        <g id="Group-4">
                            <g id="Group-2" transform="translate(0.000000, 236.000000)">
                                <path d="M8.99962472,0 C4.03747203,0 0,4.12897085 0,9.20408957 C0,10.5278778 0.264945029,11.7917963 0.787079378,12.9610488 C3.03723574,17.9965102 7.35141146,23.3128991 8.62034553,24.8221815 C8.71541551,24.9350131 8.85401754,25 8.99987491,25 C9.14573228,25 9.2843343,24.9350131 9.37940428,24.8221815 C10.647838,23.313155 14.9620137,17.9970219 17.2129206,12.9610488 C17.7353052,11.7917963 18,10.5278778 18,9.20408957 C17.9994996,4.12897085 13.9620276,0 8.99962472,0 Z M8.99962472,13.9847204 C6.42197729,13.9847204 4.32468345,11.8398968 4.32468345,9.20383372 C4.32468345,6.56751474 6.42197729,4.42269117 8.99962472,4.42269117 C11.5772722,4.42269117 13.674566,6.56751474 13.674566,9.20383372 C13.6748162,11.8398968 11.5775223,13.9847204 8.99962472,13.9847204 Z" id="Shape"></path>
                            </g>
                        </g>
                    </g>
                </g>
            </g>
        </g>
    </g>
</svg>