<?xml version="1.0" encoding="UTF-8"?>
<svg width="25px" height="24px" viewBox="0 0 25 24" version="1.1" xmlns="http://www.w3.org/2000/svg" xmlns:xlink="http://www.w3.org/1999/xlink">
    <!-- Generator: Sketch 41 (35326) - http://www.bohemiancoding.com/sketch -->
    <title>routes</title>
    <desc>Created with Sketch.</desc>
    <defs></defs>
    <g id="Desktop" stroke="none" stroke-width="1" fill="none" fill-rule="evenodd">
        <g id="Map" transform="translate(-610.000000, -318.000000)" fill="#FFFFFF">
            <g id="button" transform="translate(589.000000, 304.000000)">
                <g id="routes" transform="translate(21.000000, 14.000000)">
                    <g id="Layer_1">
                        <path d="M6.48149414,4.58429784 C2.90751953,4.58429784 0,7.45592207 0,10.9857735 C0,12.6689815 0.796630859,15.1262056 2.02910156,17.2456597 C3.43334961,19.6602527 5.05600586,21.0451871 6.48149414,21.0451871 C7.90698242,21.0451871 9.52963867,19.6602527 10.9338867,17.2456597 C12.1663574,15.1262056 12.9629395,12.6689333 12.9629395,10.9857735 C12.9629883,7.45592207 10.0554199,4.58429784 6.48149414,4.58429784 Z M6.48149414,20.1307388 C4.47006836,20.1307388 0.925927734,14.8440394 0.925927734,10.9857735 C0.925927734,7.96031057 3.41796875,5.49879437 6.48149414,5.49879437 C9.54501953,5.49879437 12.0370605,7.96031057 12.0370605,10.9857735 C12.0370117,14.8439911 8.49291992,20.1307388 6.48149414,20.1307388 Z" id="Shape"></path>
                        <path d="M6.48149414,7.7850598 C4.69472656,7.7850598 3.24077148,9.22087191 3.24077148,10.9857735 C3.24077148,12.7506752 4.69477539,14.1864873 6.48149414,14.1864873 C8.26821289,14.1864873 9.7222168,12.7506752 9.7222168,10.9857735 C9.7222168,9.22087191 8.26821289,7.7850598 6.48149414,7.7850598 Z M6.48149414,13.2719907 C5.20517578,13.2719907 4.16669922,12.2462867 4.16669922,10.9857735 C4.16669922,9.72521219 5.20522461,8.69955633 6.48149414,8.69955633 C7.7578125,8.69955633 8.79628906,9.72521219 8.79628906,10.9857735 C8.79628906,12.2463349 7.7578125,13.2719907 6.48149414,13.2719907 Z" id="Shape"></path>
                        <path d="M20.3703613,0.0118152006 C17.8177246,0.0118152006 15.7407227,2.06293403 15.7407227,4.58429784 C15.7407227,6.88638117 18.5541992,11.4429977 20.3703613,11.4429977 C22.1865234,11.4429977 25,6.88638117 25,4.58429784 C25,2.06298225 22.922998,0.0118152006 20.3703613,0.0118152006 Z M20.3703613,10.5285012 C19.3983398,10.5285012 16.6666504,6.77608989 16.6666504,4.58429784 C16.6666504,2.56732253 18.3281738,0.926311728 20.3703613,0.926311728 C22.4125488,0.926311728 24.0740723,2.56732253 24.0740723,4.58429784 C24.0740723,6.77608989 21.3424316,10.5285012 20.3703613,10.5285012 Z" id="Shape"></path>
                        <path d="M20.3703613,2.29808063 C19.094043,2.29808063 18.0555664,3.3237365 18.0555664,4.58429784 C18.0555664,5.84485918 19.0940918,6.87051505 20.3703613,6.87051505 C21.6466797,6.87051505 22.6851563,5.84481096 22.6851563,4.58429784 C22.6852051,3.3237365 21.6466797,2.29808063 20.3703613,2.29808063 Z M20.3703613,5.95606674 C19.6044922,5.95606674 18.9814941,5.34076003 18.9814941,4.58434606 C18.9814941,3.8279321 19.6044922,3.21262539 20.3703613,3.21262539 C21.1362305,3.21262539 21.7592285,3.8279321 21.7592285,4.58434606 C21.7592773,5.34071181 21.1362305,5.95606674 20.3703613,5.95606674 Z" id="Shape"></path>
                        <path d="M16.9632324,17.0360243 C16.4053223,16.5772087 16.1485352,16.0934124 16.177002,15.5569059 C16.2402832,14.3606771 17.7403809,13.1161748 18.312793,12.7377508 C18.5248535,12.5973187 18.5822266,12.313561 18.4402832,12.1036844 C18.2983398,11.8935667 18.0103027,11.8366609 17.7987305,11.977093 C17.6988281,12.0427276 15.3550781,13.6071566 15.2524414,15.5067033 C15.2072266,16.3399402 15.5833984,17.0910012 16.3700684,17.7384742 C18.0867676,19.1515239 19.0388672,20.5817419 18.7952148,21.3823785 C18.5872559,22.0649113 17.4949219,22.323206 16.6155762,22.4198978 C12.6311035,22.8577353 9.4730957,21.5525174 9.44101563,21.5393519 C9.20546875,21.4395737 8.93417969,21.5480806 8.83383789,21.7800444 C8.73344727,22.0122492 8.84199219,22.2806231 9.07705078,22.3799672 C9.19370117,22.4295428 11.5916992,23.425733 14.9305664,23.425733 C15.5006836,23.425733 16.0992676,23.3967014 16.7177734,23.3286073 C18.4009766,23.1439525 19.3979004,22.5777392 19.6818359,21.6456404 C20.1841309,19.9951775 18.1938965,18.0491898 16.9632324,17.0360243 Z" id="Shape"></path>
                    </g>
                </g>
            </g>
        </g>
    </g>
</svg>