
<svg width="19px" height="20px" viewBox="0 0 19 20" version="1.1" xmlns="http://www.w3.org/2000/svg" xmlns:xlink="http://www.w3.org/1999/xlink">
    <!-- Generator: Sketch 42 (36781) - http://www.bohemiancoding.com/sketch -->
    <desc>Created with Sketch.</desc>
    <defs></defs>
    <path d="M13.0226546,13.0309917 C14.2573161,11.6494628 15.0275853,9.79958678 15.0275853,7.76239669 C15.0275853,3.48896694 11.6633795,0 7.51759062,0 C3.37180171,0 0.00759594883,3.48896694 0.00759594883,7.76239669 C0.00759594883,12.0358264 3.37180171,15.5247934 7.51759062,15.5247934 C9.20537047,15.5247934 10.7571828,14.9511157 12.0145123,13.9793388 L17.5988539,19.7513636 C17.7347814,19.8918595 17.9046908,19.9621074 18.0746002,19.9621074 C18.2445096,19.9621074 18.4257329,19.8918595 18.5503465,19.7513636 C18.8108875,19.4820661 18.8108875,19.0371901 18.5503465,18.7561983 L13.0226546,13.0309917 Z M1.366871,7.76239669 C1.366871,4.26169421 4.11940299,1.40495868 7.51759062,1.40495868 C10.9044643,1.40495868 13.6683102,4.25 13.6683102,7.76239669 C13.6683102,11.2747934 10.9157783,14.1198347 7.51759062,14.1198347 C4.11940299,14.1198347 1.366871,11.2630992 1.366871,7.76239669 Z" id="Shape" stroke="none" fill="#B9C6CF" fill-rule="evenodd"></path>
</svg>
