<svg width="22px" height="21px" viewBox="338 15 22 21" version="1.1" xmlns="http://www.w3.org/2000/svg" xmlns:xlink="http://www.w3.org/1999/xlink">
    <path d="M338.705125,18.3205 C338.315708,18.3205 338,18.0191422 338,17.6474257 C338,17.2757092 338.315708,16.9743514 338.705125,16.9743514 L342.393776,16.9743514 C342.70657,15.8394583 343.790488,15 345.076166,15 C346.361845,15 347.445763,15.8394583 347.758557,16.9743514 L359.294781,16.9743514 C359.684198,16.9743514 359.999906,17.2757092 359.999906,17.6474257 C359.999906,18.0191422 359.684198,18.3205 359.294781,18.3205 L347.758651,18.3205 C347.445857,19.4553931 346.361939,20.2948514 345.07626,20.2948514 C343.790582,20.2948514 342.706664,19.4553931 342.39387,18.3205 L338.705125,18.3205 Z M354.594886,24.3269257 L359.294781,24.3269257 C359.684198,24.3269257 360,24.6282835 360,25 C360,25.3717165 359.684292,25.6730743 359.294875,25.6730743 L354.59498,25.6730743 C354.282187,26.8078777 353.198268,27.6474257 351.91259,27.6474257 C350.626912,27.6474257 349.542993,26.8078777 349.2302,25.6730743 L338.705125,25.6730743 C338.315708,25.6730743 338,25.3717165 338,25 C338,24.6282835 338.315708,24.3269257 338.705125,24.3269257 L349.230106,24.3269257 C349.542899,23.1920326 350.626818,22.3525743 351.912496,22.3525743 C353.198174,22.3525743 354.282093,23.1920326 354.594886,24.3269257 Z M359.294781,31.6795 C359.684198,31.6795 359.999906,31.9808578 359.999906,32.3525743 C359.999906,32.7242908 359.684198,33.0256486 359.294781,33.0256486 L347.758651,33.0256486 C347.445857,34.1605417 346.361939,35 345.07626,35 C343.790582,35 342.706664,34.1605417 342.39387,33.0256486 L338.705125,33.0256486 C338.315708,33.0256486 338,32.7242908 338,32.3525743 C338,31.9808578 338.315708,31.6795 338.705125,31.6795 L342.393776,31.6795 C342.70657,30.5446966 343.790488,29.7051486 345.076166,29.7051486 C346.361845,29.7051486 347.445763,30.5446966 347.758557,31.6795 L359.294781,31.6795 Z" id="Combined-Shape" stroke="none" fill="#F04141" fill-rule="evenodd"></path>
</svg>
