<?xml version="1.0" encoding="UTF-8"?>
<svg width="22px" height="20px" viewBox="0 0 22 20" version="1.1" xmlns="http://www.w3.org/2000/svg" xmlns:xlink="http://www.w3.org/1999/xlink">
    <!-- Generator: Sketch 41 (35326) - http://www.bohemiancoding.com/sketch -->
    <title>Combined Shape</title>
    <desc>Created with Sketch.</desc>
    <defs></defs>
    <g id="Desktop" stroke="none" stroke-width="1" fill="none" fill-rule="evenodd" fill-opacity="0.296365489">
        <g id="Place" transform="translate(-1119.000000, -114.000000)" fill="#FFFFFF">
            <g id="Top" transform="translate(-1.000000, 74.000000)">
                <g id="Search" transform="translate(171.000000, 38.000000)">
                    <g id="search-input">
                        <path d="M949.705125,5.32050005 L953.39387,5.32050005 C953.706664,6.45539312 954.790582,7.29485143 956.07626,7.29485143 C957.361939,7.29485143 958.445857,6.45539312 958.758651,5.32050005 L970.294781,5.32050005 C970.684198,5.32050005 970.999906,5.01914223 970.999906,4.64742572 C970.999906,4.2757092 970.684198,3.97435138 970.294781,3.97435138 L958.758557,3.97435138 C958.445763,2.83945831 957.361845,2 956.076166,2 C954.790488,2 953.70657,2.83945831 953.393776,3.97435138 L949.705125,3.97435138 C949.315708,3.97435138 949,4.2757092 949,4.64742572 C949,5.01914223 949.315708,5.32050005 949.705125,5.32050005 Z M965.594886,11.3269257 C965.282093,10.1920326 964.198174,9.35257428 962.912496,9.35257428 C961.626818,9.35257428 960.542899,10.1920326 960.230106,11.3269257 L949.705125,11.3269257 C949.315708,11.3269257 949,11.6282835 949,12 C949,12.3717165 949.315708,12.6730743 949.705125,12.6730743 L960.2302,12.6730743 C960.542993,13.8078777 961.626912,14.6474257 962.91259,14.6474257 C964.198268,14.6474257 965.282187,13.8078777 965.59498,12.6730743 L970.294875,12.6730743 C970.684292,12.6730743 971,12.3717165 971,12 C971,11.6282835 970.684198,11.3269257 970.294781,11.3269257 L965.594886,11.3269257 Z M970.294781,18.6795 L958.758557,18.6795 C958.445763,17.5446966 957.361845,16.7051486 956.076166,16.7051486 C954.790488,16.7051486 953.70657,17.5446966 953.393776,18.6795 L949.705125,18.6795 C949.315708,18.6795 949,18.9808578 949,19.3525743 C949,19.7242908 949.315708,20.0256486 949.705125,20.0256486 L953.39387,20.0256486 C953.706664,21.1605417 954.790582,22 956.07626,22 C957.361939,22 958.445857,21.1605417 958.758651,20.0256486 L970.294781,20.0256486 C970.684198,20.0256486 970.999906,19.7242908 970.999906,19.3525743 C970.999906,18.9808578 970.684198,18.6795 970.294781,18.6795 Z" id="Combined-Shape"></path>
                    </g>
                </g>
            </g>
        </g>
    </g>
</svg>