<svg xmlns="http://www.w3.org/2000/svg" width="23" height="56" viewBox="0 0 23 56">
  <g fill="none" fill-rule="evenodd">
    <g fill-rule="nonzero" transform="translate(0 42)">
      <path fill="#FFFFFF" d="M23,5.5 L23,8.75 C23,8.95833437 22.9270841,9.13541594 22.78125,9.28125 C22.6354159,9.42708406 22.4583344,9.5 22.25,9.5 C22.0416656,9.5 21.8645841,9.42708406 21.71875,9.28125 C21.5729159,9.13541594 21.5,8.95833437 21.5,8.75 L21.5,6 L21,6 L21,13.125 C21,13.3645845 20.9140634,13.5703116 20.7421875,13.7421875 C20.5703116,13.9140634 20.3645845,14 20.125,14 C19.8854155,14 19.6796884,13.9140634 19.5078125,13.7421875 C19.3359366,13.5703116 19.25,13.3645845 19.25,13.125 L19.25,9.5 L18.75,9.5 L18.75,13.125 C18.75,13.3645845 18.6640634,13.5703116 18.4921875,13.7421875 C18.3203116,13.9140634 18.1145845,14 17.875,14 C17.6354155,14 17.4296884,13.9140634 17.2578125,13.7421875 C17.0859366,13.5703116 17,13.3645845 17,13.125 L17,6 L16.5,6 L16.5,8.75 C16.5,8.95833437 16.4270841,9.13541594 16.28125,9.28125 C16.1354159,9.42708406 15.9583344,9.5 15.75,9.5 C15.5416656,9.5 15.3645841,9.42708406 15.21875,9.28125 C15.0729159,9.13541594 15,8.95833437 15,8.75 L15,5.5 C15,5.08333125 15.1458319,4.72916812 15.4375,4.4375 C15.7291681,4.14583188 16.0833313,4 16.5,4 L21.5,4 C21.9166687,4 22.2708319,4.14583188 22.5625,4.4375 C22.8541681,4.72916812 23,5.08333125 23,5.5 L23,5.5 Z M20.75,2 C20.75,2.48437742 20.5794288,2.89713371 20.2382812,3.23828125 C19.8971337,3.57942879 19.4843774,3.75 19,3.75 C18.5156226,3.75 18.1028663,3.57942879 17.7617188,3.23828125 C17.4205712,2.89713371 17.25,2.48437742 17.25,2 C17.25,1.51562258 17.4205712,1.10286629 17.7617188,0.76171875 C18.1028663,0.420571211 18.5156226,0.25 19,0.25 C19.4843774,0.25 19.8971337,0.420571211 20.2382812,0.76171875 C20.5794288,1.10286629 20.75,1.51562258 20.75,2 L20.75,2 Z" opacity=".25"/>
      <path fill="#E78980" d="M18,5.5 L18,8.75 C18,8.95833437 17.9270841,9.13541594 17.78125,9.28125 C17.6354159,9.42708406 17.4583344,9.5 17.25,9.5 C17.0416656,9.5 16.8645841,9.42708406 16.71875,9.28125 C16.5729159,9.13541594 16.5,8.95833437 16.5,8.75 L16.5,6 L16,6 L16,13.125 C16,13.3645845 15.9140634,13.5703116 15.7421875,13.7421875 C15.5703116,13.9140634 15.3645845,14 15.125,14 C14.8854155,14 14.6796884,13.9140634 14.5078125,13.7421875 C14.3359366,13.5703116 14.25,13.3645845 14.25,13.125 L14.25,9.5 L13.75,9.5 L13.75,13.125 C13.75,13.3645845 13.6640634,13.5703116 13.4921875,13.7421875 C13.3203116,13.9140634 13.1145845,14 12.875,14 C12.6354155,14 12.4296884,13.9140634 12.2578125,13.7421875 C12.0859366,13.5703116 12,13.3645845 12,13.125 L12,6 L11.5,6 L11.5,8.75 C11.5,8.95833437 11.4270841,9.13541594 11.28125,9.28125 C11.1354159,9.42708406 10.9583344,9.5 10.75,9.5 C10.5416656,9.5 10.3645841,9.42708406 10.21875,9.28125 C10.0729159,9.13541594 10,8.95833437 10,8.75 L10,5.5 C10,5.08333125 10.1458319,4.72916812 10.4375,4.4375 C10.7291681,4.14583188 11.0833313,4 11.5,4 L16.5,4 C16.9166687,4 17.2708319,4.14583188 17.5625,4.4375 C17.8541681,4.72916812 18,5.08333125 18,5.5 L18,5.5 Z M15.75,2 C15.75,2.48437742 15.5794288,2.89713371 15.2382812,3.23828125 C14.8971337,3.57942879 14.4843774,3.75 14,3.75 C13.5156226,3.75 13.1028663,3.57942879 12.7617188,3.23828125 C12.4205712,2.89713371 12.25,2.48437742 12.25,2 C12.25,1.51562258 12.4205712,1.10286629 12.7617188,0.76171875 C13.1028663,0.420571211 13.5156226,0.25 14,0.25 C14.4843774,0.25 14.8971337,0.420571211 15.2382812,0.76171875 C15.5794288,1.10286629 15.75,1.51562258 15.75,2 L15.75,2 Z"/>
      <path fill="#F3C3BF" d="M13,5.5 L13,8.75 C13,8.95833437 12.9270841,9.13541594 12.78125,9.28125 C12.6354159,9.42708406 12.4583344,9.5 12.25,9.5 C12.0416656,9.5 11.8645841,9.42708406 11.71875,9.28125 C11.5729159,9.13541594 11.5,8.95833437 11.5,8.75 L11.5,6 L11,6 L11,13.125 C11,13.3645845 10.9140634,13.5703116 10.7421875,13.7421875 C10.5703116,13.9140634 10.3645845,14 10.125,14 C9.88541547,14 9.67968836,13.9140634 9.5078125,13.7421875 C9.33593664,13.5703116 9.25,13.3645845 9.25,13.125 L9.25,9.5 L8.75,9.5 L8.75,13.125 C8.75,13.3645845 8.66406336,13.5703116 8.4921875,13.7421875 C8.32031164,13.9140634 8.11458453,14 7.875,14 C7.63541547,14 7.42968836,13.9140634 7.2578125,13.7421875 C7.08593664,13.5703116 7,13.3645845 7,13.125 L7,6 L6.5,6 L6.5,8.75 C6.5,8.95833437 6.42708406,9.13541594 6.28125,9.28125 C6.13541594,9.42708406 5.95833437,9.5 5.75,9.5 C5.54166563,9.5 5.36458406,9.42708406 5.21875,9.28125 C5.07291594,9.13541594 5,8.95833437 5,8.75 L5,5.5 C5,5.08333125 5.14583187,4.72916812 5.4375,4.4375 C5.72916813,4.14583188 6.08333125,4 6.5,4 L11.5,4 C11.9166687,4 12.2708319,4.14583188 12.5625,4.4375 C12.8541681,4.72916812 13,5.08333125 13,5.5 L13,5.5 Z M10.75,2 C10.75,2.48437742 10.5794288,2.89713371 10.2382812,3.23828125 C9.89713371,3.57942879 9.48437742,3.75 9,3.75 C8.51562258,3.75 8.10286629,3.57942879 7.76171875,3.23828125 C7.42057121,2.89713371 7.25,2.48437742 7.25,2 C7.25,1.51562258 7.42057121,1.10286629 7.76171875,0.76171875 C8.10286629,0.420571211 8.51562258,0.25 9,0.25 C9.48437742,0.25 9.89713371,0.420571211 10.2382812,0.76171875 C10.5794288,1.10286629 10.75,1.51562258 10.75,2 L10.75,2 Z"/>
      <path fill="#FFFFFF" d="M8.00000954,5.49999225 C8.00000954,4.67186626 7.32813374,3.99999046 6.50000775,3.99999046 L1.50000179,3.99999046 C0.671875801,3.99999046 0,4.67186626 0,5.49999225 L0,8.74999613 C0,9.16405912 0.3359379,9.49999702 0.750000894,9.49999702 C1.16406389,9.49999702 1.50000179,9.16405912 1.50000179,8.74999613 L1.50000179,5.99999285 L2.00000238,5.99999285 L2.00000238,13.1250013 C2.00000238,13.6093769 2.39062785,14.0000024 2.87500343,14.0000024 C3.359379,14.0000024 3.75000447,13.6093769 3.75000447,13.1250013 L3.75000447,9.49999702 L4.25000507,9.49999702 L4.25000507,13.1250013 C4.25000507,13.6093769 4.64063053,14.0000024 5.12500611,14.0000024 C5.60938169,14.0000024 6.00000715,13.6093769 6.00000715,13.1250013 L6.00000715,5.99999285 L6.50000775,5.99999285 L6.50000775,8.74999613 C6.50000775,9.16405912 6.83594565,9.49999702 7.25000864,9.49999702 C7.66407164,9.49999702 8.00000954,9.16405912 8.00000954,8.74999613 L8.00000954,5.49999225 Z M5.75000685,1.99998808 C5.75000685,1.03123692 4.96875592,0.249985993 4.00000477,0.249985993 C3.03125361,0.249985993 2.25000268,1.03123692 2.25000268,1.99998808 C2.25000268,2.96873923 3.03125361,3.74999017 4.00000477,3.74999017 C4.96875592,3.74999017 5.75000685,2.96873923 5.75000685,1.99998808 Z"/>
    </g>
    <path fill="#FFFFFF" fill-rule="nonzero" d="M8.00000954,5.34545455 C8.00000954,4.50227273 7.32813374,3.81818182 6.50000775,3.81818182 L1.50000179,3.81818182 C0.671875801,3.81818182 0,4.50227273 0,5.34545455 L0,8.65454545 C0,9.07613636 0.3359379,9.41818182 0.750000894,9.41818182 C1.16406389,9.41818182 1.50000179,9.07613636 1.50000179,8.65454545 L1.50000179,5.85454545 L2.00000238,5.85454545 L2.00000238,13.1090909 C2.00000238,13.6022727 2.39062785,14 2.87500343,14 C3.359379,14 3.75000447,13.6022727 3.75000447,13.1090909 L3.75000447,9.41818182 L4.25000507,9.41818182 L4.25000507,13.1090909 C4.25000507,13.6022727 4.64063053,14 5.12500611,14 C5.60938169,14 6.00000715,13.6022727 6.00000715,13.1090909 L6.00000715,5.85454545 L6.50000775,5.85454545 L6.50000775,8.65454545 C6.50000775,9.07613636 6.83594565,9.41818182 7.25000864,9.41818182 C7.66407164,9.41818182 8.00000954,9.07613636 8.00000954,8.65454545 L8.00000954,5.34545455 Z M5.75000685,1.78181818 C5.75000685,0.795454545 4.96875592,0 4.00000477,0 C3.03125361,0 2.25000268,0.795454545 2.25000268,1.78181818 C2.25000268,2.76818182 3.03125361,3.56363636 4.00000477,3.56363636 C4.96875592,3.56363636 5.75000685,2.76818182 5.75000685,1.78181818 Z"/>
    <g fill-rule="nonzero" transform="translate(0 14)">
      <path fill="#FCE1B3" d="M13.0000095,5.49999225 C13.0000095,4.67186626 12.3281337,3.99999046 11.5000077,3.99999046 L6.50000179,3.99999046 C5.6718758,3.99999046 5,4.67186626 5,5.49999225 L5,8.74999613 C5,9.16405912 5.3359379,9.49999702 5.75000089,9.49999702 C6.16406389,9.49999702 6.50000179,9.16405912 6.50000179,8.74999613 L6.50000179,5.99999285 L7.00000238,5.99999285 L7.00000238,13.1250013 C7.00000238,13.6093769 7.39062785,14.0000024 7.87500343,14.0000024 C8.359379,14.0000024 8.75000447,13.6093769 8.75000447,13.1250013 L8.75000447,9.49999702 L9.25000507,9.49999702 L9.25000507,13.1250013 C9.25000507,13.6093769 9.64063053,14.0000024 10.1250061,14.0000024 C10.6093817,14.0000024 11.0000072,13.6093769 11.0000072,13.1250013 L11.0000072,5.99999285 L11.5000077,5.99999285 L11.5000077,8.74999613 C11.5000077,9.16405912 11.8359456,9.49999702 12.2500086,9.49999702 C12.6640716,9.49999702 13.0000095,9.16405912 13.0000095,8.74999613 L13.0000095,5.49999225 Z M10.7500069,1.99998808 C10.7500069,1.03123692 9.96875592,0.249985993 9.00000477,0.249985993 C8.03125361,0.249985993 7.25000268,1.03123692 7.25000268,1.99998808 C7.25000268,2.96873923 8.03125361,3.74999017 9.00000477,3.74999017 C9.96875592,3.74999017 10.7500069,2.96873923 10.7500069,1.99998808 Z"/>
      <path fill="#FFFFFF" d="M8.00000954,5.49999225 C8.00000954,4.67186626 7.32813374,3.99999046 6.50000775,3.99999046 L1.50000179,3.99999046 C0.671875801,3.99999046 0,4.67186626 0,5.49999225 L0,8.74999613 C0,9.16405912 0.3359379,9.49999702 0.750000894,9.49999702 C1.16406389,9.49999702 1.50000179,9.16405912 1.50000179,8.74999613 L1.50000179,5.99999285 L2.00000238,5.99999285 L2.00000238,13.1250013 C2.00000238,13.6093769 2.39062785,14.0000024 2.87500343,14.0000024 C3.359379,14.0000024 3.75000447,13.6093769 3.75000447,13.1250013 L3.75000447,9.49999702 L4.25000507,9.49999702 L4.25000507,13.1250013 C4.25000507,13.6093769 4.64063053,14.0000024 5.12500611,14.0000024 C5.60938169,14.0000024 6.00000715,13.6093769 6.00000715,13.1250013 L6.00000715,5.99999285 L6.50000775,5.99999285 L6.50000775,8.74999613 C6.50000775,9.16405912 6.83594565,9.49999702 7.25000864,9.49999702 C7.66407164,9.49999702 8.00000954,9.16405912 8.00000954,8.74999613 L8.00000954,5.49999225 Z M5.75000685,1.99998808 C5.75000685,1.03123692 4.96875592,0.249985993 4.00000477,0.249985993 C3.03125361,0.249985993 2.25000268,1.03123692 2.25000268,1.99998808 C2.25000268,2.96873923 3.03125361,3.74999017 4.00000477,3.74999017 C4.96875592,3.74999017 5.75000685,2.96873923 5.75000685,1.99998808 Z"/>
    </g>
    <g transform="translate(0 28)">
      <path fill="#F3C3BF" d="M8.00000954,5.49999225 C8.00000954,4.67186626 7.32813374,3.99999046 6.50000775,3.99999046 L1.50000179,3.99999046 C0.671875801,3.99999046 0,4.67186626 0,5.49999225 L0,8.74999613 C0,9.16405912 0.3359379,9.49999702 0.750000894,9.49999702 C1.16406389,9.49999702 1.50000179,9.16405912 1.50000179,8.74999613 L1.50000179,5.99999285 L2.00000238,5.99999285 L2.00000238,13.1250013 C2.00000238,13.6093769 2.39062785,14.0000024 2.87500343,14.0000024 C3.359379,14.0000024 3.75000447,13.6093769 3.75000447,13.1250013 L3.75000447,9.49999702 L4.25000507,9.49999702 L4.25000507,13.1250013 C4.25000507,13.6093769 4.64063053,14.0000024 5.12500611,14.0000024 C5.60938169,14.0000024 6.00000715,13.6093769 6.00000715,13.1250013 L6.00000715,5.99999285 L6.50000775,5.99999285 L6.50000775,8.74999613 C6.50000775,9.16405912 6.83594565,9.49999702 7.25000864,9.49999702 C7.66407164,9.49999702 8.00000954,9.16405912 8.00000954,8.74999613 L8.00000954,5.49999225 Z M5.75000685,1.99998808 C5.75000685,1.03123692 4.96875592,0.249985993 4.00000477,0.249985993 C3.03125361,0.249985993 2.25000268,1.03123692 2.25000268,1.99998808 C2.25000268,2.96873923 3.03125361,3.74999017 4.00000477,3.74999017 C4.96875592,3.74999017 5.75000685,2.96873923 5.75000685,1.99998808 Z" transform="translate(5)"/>
      <path fill="#FFFFFF" d="M8.00000954,5.49999225 C8.00000954,4.67186626 7.32813374,3.99999046 6.50000775,3.99999046 L1.50000179,3.99999046 C0.671875801,3.99999046 0,4.67186626 0,5.49999225 L0,8.74999613 C0,9.16405912 0.3359379,9.49999702 0.750000894,9.49999702 C1.16406389,9.49999702 1.50000179,9.16405912 1.50000179,8.74999613 L1.50000179,5.99999285 L2.00000238,5.99999285 L2.00000238,13.1250013 C2.00000238,13.6093769 2.39062785,14.0000024 2.87500343,14.0000024 C3.359379,14.0000024 3.75000447,13.6093769 3.75000447,13.1250013 L3.75000447,9.49999702 L4.25000507,9.49999702 L4.25000507,13.1250013 C4.25000507,13.6093769 4.64063053,14.0000024 5.12500611,14.0000024 C5.60938169,14.0000024 6.00000715,13.6093769 6.00000715,13.1250013 L6.00000715,5.99999285 L6.50000775,5.99999285 L6.50000775,8.74999613 C6.50000775,9.16405912 6.83594565,9.49999702 7.25000864,9.49999702 C7.66407164,9.49999702 8.00000954,9.16405912 8.00000954,8.74999613 L8.00000954,5.49999225 Z M5.75000685,1.99998808 C5.75000685,1.03123692 4.96875592,0.249985993 4.00000477,0.249985993 C3.03125361,0.249985993 2.25000268,1.03123692 2.25000268,1.99998808 C2.25000268,2.96873923 3.03125361,3.74999017 4.00000477,3.74999017 C4.96875592,3.74999017 5.75000685,2.96873923 5.75000685,1.99998808 Z"/>
      <path fill="#FFFFFF" d="M8.00000954,5.49999225 C8.00000954,4.67186626 7.32813374,3.99999046 6.50000775,3.99999046 L1.50000179,3.99999046 C0.671875801,3.99999046 0,4.67186626 0,5.49999225 L0,8.74999613 C0,9.16405912 0.3359379,9.49999702 0.750000894,9.49999702 C1.16406389,9.49999702 1.50000179,9.16405912 1.50000179,8.74999613 L1.50000179,5.99999285 L2.00000238,5.99999285 L2.00000238,13.1250013 C2.00000238,13.6093769 2.39062785,14.0000024 2.87500343,14.0000024 C3.359379,14.0000024 3.75000447,13.6093769 3.75000447,13.1250013 L3.75000447,9.49999702 L4.25000507,9.49999702 L4.25000507,13.1250013 C4.25000507,13.6093769 4.64063053,14.0000024 5.12500611,14.0000024 C5.60938169,14.0000024 6.00000715,13.6093769 6.00000715,13.1250013 L6.00000715,5.99999285 L6.50000775,5.99999285 L6.50000775,8.74999613 C6.50000775,9.16405912 6.83594565,9.49999702 7.25000864,9.49999702 C7.66407164,9.49999702 8.00000954,9.16405912 8.00000954,8.74999613 L8.00000954,5.49999225 Z M5.75000685,1.99998808 C5.75000685,1.03123692 4.96875592,0.249985993 4.00000477,0.249985993 C3.03125361,0.249985993 2.25000268,1.03123692 2.25000268,1.99998808 C2.25000268,2.96873923 3.03125361,3.74999017 4.00000477,3.74999017 C4.96875592,3.74999017 5.75000685,2.96873923 5.75000685,1.99998808 Z" opacity=".3" transform="translate(10)"/>
    </g>
  </g>
</svg>
