<svg width="12" height="12" viewBox="0 0 12 12" xmlns="http://www.w3.org/2000/svg"><title>clock</title><path d="M5.898 0a5.896 5.896 0 0 1 5.9 5.9 5.897 5.897 0 1 1-11.796 0c0-1.628.658-3.102 1.728-4.172A5.879 5.879 0 0 1 5.898 0zm3.007 5.578a.32.32 0 0 1 .317.322.32.32 0 0 1-.317.322H5.897a.322.322 0 0 1-.276-.163l-.004-.005-.005-.009v-.004l-.005-.01-.004-.009v-.004l-.005-.01-.004-.004v-.01l-.005-.008V5.98l-.004-.009v-.017l-.005-.005V2.06c0-.177.14-.318.317-.318a.32.32 0 0 1 .322.318v3.519h2.686zM5.898.644a5.24 5.24 0 0 0-3.719 1.537A5.26 5.26 0 0 0 .642 5.9a5.26 5.26 0 0 0 1.537 3.719 5.24 5.24 0 0 0 3.719 1.537A5.24 5.24 0 0 0 9.616 9.62a5.244 5.244 0 0 0 1.542-3.72c0-1.451-.59-2.766-1.542-3.719A5.24 5.24 0 0 0 5.898.644z" fill="#7F7F7F" fill-rule="evenodd"/></svg>