<svg width="25" height="24" viewBox="0 0 25 24" xmlns="http://www.w3.org/2000/svg"><title>routes</title><g fill="#FFF" fill-rule="evenodd"><path d="M6.481 4.584C2.908 4.584 0 7.456 0 10.986c0 1.683.797 4.14 2.03 6.26 1.403 2.414 3.026 3.8 4.451 3.8 1.426 0 3.049-1.386 4.453-3.8 1.232-2.12 2.029-4.577 2.029-6.26 0-3.53-2.908-6.402-6.482-6.402zm0 15.547c-2.01 0-5.555-5.287-5.555-9.145 0-3.026 2.492-5.487 5.555-5.487 3.064 0 5.556 2.461 5.556 5.487 0 3.858-3.544 9.145-5.556 9.145z"/><path d="M6.481 7.785c-1.786 0-3.24 1.436-3.24 3.2 0 1.766 1.454 3.201 3.24 3.201 1.787 0 3.241-1.435 3.241-3.2 0-1.765-1.454-3.2-3.24-3.2zm0 5.487c-1.276 0-2.314-1.026-2.314-2.286S5.205 8.7 6.48 8.7c1.277 0 2.315 1.025 2.315 2.286 0 1.26-1.038 2.286-2.315 2.286zM20.37.012c-2.552 0-4.63 2.05-4.63 4.572 0 2.302 2.814 6.859 4.63 6.859 1.817 0 4.63-4.557 4.63-6.859C25 2.063 22.923.012 20.37.012zm0 10.517c-.972 0-3.703-3.753-3.703-5.945 0-2.017 1.661-3.658 3.703-3.658 2.043 0 3.704 1.641 3.704 3.658 0 2.192-2.732 5.945-3.704 5.945z"/><path d="M20.37 2.298c-1.276 0-2.314 1.026-2.314 2.286s1.038 2.287 2.314 2.287c1.277 0 2.315-1.026 2.315-2.287 0-1.26-1.038-2.286-2.315-2.286zm0 3.658a1.382 1.382 0 0 1-1.389-1.372c0-.756.623-1.371 1.39-1.371.765 0 1.388.615 1.388 1.371 0 .757-.623 1.372-1.389 1.372zm-3.407 11.08c-.558-.459-.814-.943-.786-1.48.063-1.195 1.563-2.44 2.136-2.818a.454.454 0 0 0 .127-.634.466.466 0 0 0-.641-.127c-.1.066-2.444 1.63-2.547 3.53-.045.833.331 1.584 1.118 2.231 1.717 1.414 2.669 2.844 2.425 3.644-.208.683-1.3.941-2.18 1.038-3.984.438-7.142-.867-7.174-.88a.464.464 0 0 0-.607.24c-.1.232.008.5.243.6.117.05 2.515 1.046 5.854 1.046.57 0 1.168-.03 1.787-.097 1.683-.185 2.68-.751 2.964-1.683.502-1.65-1.488-3.597-2.719-4.61z"/></g></svg>