<svg width="22" height="21" viewBox="338 15 22 21" xmlns="http://www.w3.org/2000/svg"><path d="M338.705 18.32c-.39 0-.705-.3-.705-.673 0-.371.316-.673.705-.673h3.689c.313-1.135 1.396-1.974 2.682-1.974s2.37.84 2.683 1.974h11.536c.39 0 .705.302.705.673 0 .372-.316.674-.705.674h-11.536c-.313 1.134-1.397 1.974-2.683 1.974-1.285 0-2.37-.84-2.682-1.975h-3.689zm15.89 6.007h4.7c.39 0 .705.301.705.673 0 .372-.316.673-.705.673h-4.7c-.313 1.135-1.397 1.974-2.682 1.974-1.286 0-2.37-.84-2.683-1.974h-10.525c-.39 0-.705-.301-.705-.673 0-.372.316-.673.705-.673h10.525c.313-1.135 1.397-1.974 2.682-1.974 1.286 0 2.37.839 2.683 1.974zm4.7 7.352c.39 0 .705.302.705.674 0 .371-.316.673-.705.673h-11.536c-.313 1.135-1.397 1.974-2.683 1.974-1.285 0-2.37-.84-2.682-1.974h-3.689c-.39 0-.705-.302-.705-.673 0-.372.316-.674.705-.674h3.689c.313-1.134 1.396-1.974 2.682-1.974s2.37.84 2.683 1.975h11.536z" fill="#F04141" fill-rule="evenodd"/></svg>