<svg width="19" height="20" viewBox="0 0 19 20" xmlns="http://www.w3.org/2000/svg"><path d="M13.023 13.031a7.893 7.893 0 0 0 2.005-5.269C15.028 3.49 11.663 0 7.518 0 3.372 0 .008 3.489.008 7.762c0 4.274 3.364 7.763 7.51 7.763 1.687 0 3.24-.574 4.497-1.546l5.584 5.772a.642.642 0 0 0 .951 0 .731.731 0 0 0 0-.995l-5.527-5.725zM1.367 7.762c0-3.5 2.752-6.357 6.15-6.357 3.387 0 6.151 2.845 6.151 6.357 0 3.513-2.752 6.358-6.15 6.358-3.399 0-6.151-2.857-6.151-6.358z" fill="#B9C6CF" fill-rule="evenodd"/></svg>