<svg width="22" height="20" viewBox="0 0 22 20" xmlns="http://www.w3.org/2000/svg"><title>Combined Shape</title><path d="M.705 3.32h3.689c.313 1.135 1.397 1.975 2.682 1.975 1.286 0 2.37-.84 2.683-1.974h11.536c.39 0 .705-.302.705-.674 0-.371-.316-.673-.705-.673H9.759C9.446.84 8.362 0 7.076 0 5.79 0 4.706.84 4.394 1.974H.705c-.39 0-.705.302-.705.673 0 .372.316.674.705.674zm15.89 6.007c-.313-1.135-1.397-1.974-2.683-1.974-1.285 0-2.37.839-2.682 1.974H.705C.315 9.327 0 9.628 0 10c0 .372.316.673.705.673H11.23c.313 1.135 1.397 1.974 2.683 1.974 1.285 0 2.37-.84 2.682-1.974h4.7c.39 0 .705-.301.705-.673 0-.372-.316-.673-.705-.673h-4.7zm4.7 7.353H9.759c-.313-1.135-1.397-1.975-2.683-1.975-1.286 0-2.37.84-2.682 1.975H.705c-.39 0-.705.3-.705.673 0 .371.316.673.705.673h3.689C4.707 19.16 5.79 20 7.076 20s2.37-.84 2.683-1.974h11.536c.39 0 .705-.302.705-.673 0-.372-.316-.674-.705-.674z" fill="#FFF" fill-rule="evenodd" fill-opacity=".296"/></svg>