<svg xmlns="http://www.w3.org/2000/svg" width="23" height="56" viewBox="0 0 23 56"><g fill="none" fill-rule="evenodd"><g fill-rule="nonzero"><path fill="#FFF" d="M23 47.5v3.25a.723.723 0 0 1-.219.531.723.723 0 0 1-.531.219.723.723 0 0 1-.531-.219.723.723 0 0 1-.219-.531V48H21v7.125a.84.84 0 0 1-.258.617.842.842 0 0 1-.617.258.842.842 0 0 1-.617-.258.842.842 0 0 1-.258-.617V51.5h-.5v3.625a.84.84 0 0 1-.258.617.842.842 0 0 1-.617.258.842.842 0 0 1-.617-.258.842.842 0 0 1-.258-.617V48h-.5v2.75a.723.723 0 0 1-.219.531.723.723 0 0 1-.531.219.723.723 0 0 1-.531-.219.723.723 0 0 1-.219-.531V47.5c0-.417.146-.77.438-1.063A1.447 1.447 0 0 1 16.5 46h5c.417 0 .77.146 1.063.438.291.291.437.645.437 1.062zM20.75 44c0 .484-.17.897-.512 1.238A1.687 1.687 0 0 1 19 45.75c-.484 0-.897-.17-1.238-.512A1.687 1.687 0 0 1 17.25 44c0-.484.17-.897.512-1.238A1.687 1.687 0 0 1 19 42.25c.484 0 .897.17 1.238.512.341.34.512.754.512 1.238z" opacity=".25"/><path fill="#E78980" d="M18 47.5v3.25a.723.723 0 0 1-.219.531.723.723 0 0 1-.531.219.723.723 0 0 1-.531-.219.723.723 0 0 1-.219-.531V48H16v7.125a.84.84 0 0 1-.258.617.842.842 0 0 1-.617.258.842.842 0 0 1-.617-.258.842.842 0 0 1-.258-.617V51.5h-.5v3.625a.84.84 0 0 1-.258.617.842.842 0 0 1-.617.258.842.842 0 0 1-.617-.258.842.842 0 0 1-.258-.617V48h-.5v2.75a.723.723 0 0 1-.219.531.723.723 0 0 1-.531.219.723.723 0 0 1-.531-.219.723.723 0 0 1-.219-.531V47.5c0-.417.146-.77.438-1.063A1.447 1.447 0 0 1 11.5 46h5c.417 0 .77.146 1.063.438.291.291.437.645.437 1.062zM15.75 44c0 .484-.17.897-.512 1.238A1.687 1.687 0 0 1 14 45.75c-.484 0-.897-.17-1.238-.512A1.687 1.687 0 0 1 12.25 44c0-.484.17-.897.512-1.238A1.687 1.687 0 0 1 14 42.25c.484 0 .897.17 1.238.512.341.34.512.754.512 1.238z"/><path fill="#F3C3BF" d="M13 47.5v3.25a.723.723 0 0 1-.219.531.723.723 0 0 1-.531.219.723.723 0 0 1-.531-.219.723.723 0 0 1-.219-.531V48H11v7.125a.84.84 0 0 1-.258.617.842.842 0 0 1-.617.258.842.842 0 0 1-.617-.258.842.842 0 0 1-.258-.617V51.5h-.5v3.625a.84.84 0 0 1-.258.617.842.842 0 0 1-.617.258.842.842 0 0 1-.617-.258.842.842 0 0 1-.258-.617V48h-.5v2.75a.723.723 0 0 1-.219.531.723.723 0 0 1-.531.219.723.723 0 0 1-.531-.219A.723.723 0 0 1 5 50.75V47.5c0-.417.146-.77.438-1.063A1.447 1.447 0 0 1 6.5 46h5c.417 0 .77.146 1.063.438.291.291.437.645.437 1.062zM10.75 44c0 .484-.17.897-.512 1.238A1.687 1.687 0 0 1 9 45.75c-.484 0-.897-.17-1.238-.512A1.687 1.687 0 0 1 7.25 44c0-.484.17-.897.512-1.238A1.687 1.687 0 0 1 9 42.25c.484 0 .897.17 1.238.512.341.34.512.754.512 1.238z"/><path fill="#FFF" d="M8 47.5A1.5 1.5 0 0 0 6.5 46h-5A1.5 1.5 0 0 0 0 47.5v3.25a.75.75 0 0 0 1.5 0V48H2v7.125c0 .484.39.875.875.875.484 0 .875-.39.875-.875V51.5h.5v3.625c0 .484.39.875.875.875.484 0 .875-.39.875-.875V48h.5v2.75a.75.75 0 0 0 1.5 0V47.5zM5.75 44c0-.969-.781-1.75-1.75-1.75s-1.75.781-1.75 1.75.781 1.75 1.75 1.75 1.75-.781 1.75-1.75z"/></g><path fill="#FFF" fill-rule="nonzero" d="M8 5.345c0-.843-.672-1.527-1.5-1.527h-5c-.828 0-1.5.684-1.5 1.527v3.31c0 .421.336.763.75.763s.75-.342.75-.763v-2.8H2v7.254c0 .493.39.891.875.891a.882.882 0 0 0 .875-.89V9.417h.5v3.691c0 .493.39.891.875.891A.882.882 0 0 0 6 13.11V5.854h.5v2.8c0 .421.336.763.75.763S8 9.076 8 8.655v-3.31zM5.75 1.782C5.75.795 4.969 0 4 0S2.25.795 2.25 1.782c0 .986.781 1.782 1.75 1.782s1.75-.796 1.75-1.782z"/><g fill-rule="nonzero"><path fill="#FCE1B3" d="M13 19.5a1.5 1.5 0 0 0-1.5-1.5h-5A1.5 1.5 0 0 0 5 19.5v3.25a.75.75 0 0 0 1.5 0V20H7v7.125c0 .484.39.875.875.875.484 0 .875-.39.875-.875V23.5h.5v3.625c0 .484.39.875.875.875.484 0 .875-.39.875-.875V20h.5v2.75a.75.75 0 0 0 1.5 0V19.5zM10.75 16c0-.969-.781-1.75-1.75-1.75s-1.75.781-1.75 1.75.781 1.75 1.75 1.75 1.75-.781 1.75-1.75z"/><path fill="#FFF" d="M8 19.5A1.5 1.5 0 0 0 6.5 18h-5A1.5 1.5 0 0 0 0 19.5v3.25a.75.75 0 0 0 1.5 0V20H2v7.125c0 .484.39.875.875.875.484 0 .875-.39.875-.875V23.5h.5v3.625c0 .484.39.875.875.875.484 0 .875-.39.875-.875V20h.5v2.75a.75.75 0 0 0 1.5 0V19.5zM5.75 16c0-.969-.781-1.75-1.75-1.75s-1.75.781-1.75 1.75.781 1.75 1.75 1.75 1.75-.781 1.75-1.75z"/></g><path fill="#F3C3BF" d="M13 33.5a1.5 1.5 0 0 0-1.5-1.5h-5A1.5 1.5 0 0 0 5 33.5v3.25a.75.75 0 0 0 1.5 0V34H7v7.125c0 .484.39.875.875.875.484 0 .875-.39.875-.875V37.5h.5v3.625c0 .484.39.875.875.875.484 0 .875-.39.875-.875V34h.5v2.75a.75.75 0 0 0 1.5 0V33.5zM10.75 30c0-.969-.781-1.75-1.75-1.75s-1.75.781-1.75 1.75.781 1.75 1.75 1.75 1.75-.781 1.75-1.75z"/><path fill="#FFF" d="M8 33.5A1.5 1.5 0 0 0 6.5 32h-5A1.5 1.5 0 0 0 0 33.5v3.25a.75.75 0 0 0 1.5 0V34H2v7.125c0 .484.39.875.875.875.484 0 .875-.39.875-.875V37.5h.5v3.625c0 .484.39.875.875.875.484 0 .875-.39.875-.875V34h.5v2.75a.75.75 0 0 0 1.5 0V33.5zM5.75 30c0-.969-.781-1.75-1.75-1.75s-1.75.781-1.75 1.75.781 1.75 1.75 1.75 1.75-.781 1.75-1.75z"/><path fill="#FFF" d="M18 33.5a1.5 1.5 0 0 0-1.5-1.5h-5a1.5 1.5 0 0 0-1.5 1.5v3.25a.75.75 0 0 0 1.5 0V34h.5v7.125c0 .484.39.875.875.875.484 0 .875-.39.875-.875V37.5h.5v3.625c0 .484.39.875.875.875.484 0 .875-.39.875-.875V34h.5v2.75a.75.75 0 0 0 1.5 0V33.5zM15.75 30c0-.969-.781-1.75-1.75-1.75s-1.75.781-1.75 1.75.781 1.75 1.75 1.75 1.75-.781 1.75-1.75z" opacity=".3"/></g></svg>